<svg width="40" height="40" viewBox="0 0 40 40" fill="none" xmlns="http://www.w3.org/2000/svg">
<path d="M0 20C0 8.95431 8.95431 0 20 0C31.0457 0 40 8.95431 40 20C40 31.0457 31.0457 40 20 40C8.95431 40 0 31.0457 0 20Z" fill="black"/>
<path d="M22.8727 13.7036H16.1073V26.2242H22.8727V13.7036Z" fill="#FF5A00"/>
<path d="M16.5576 19.9639C16.5576 17.4201 17.7186 15.1624 19.5 13.7036C18.189 12.6418 16.5351 12 14.7312 12C10.4578 12 7 15.5619 7 19.9639C7 24.366 10.4578 27.9278 14.7312 27.9278C16.5351 27.9278 18.189 27.2861 19.5 26.2242C17.7161 24.7861 16.5576 22.5077 16.5576 19.9639Z" fill="#EB001B"/>
<path d="M31.9999 19.9639C31.9999 24.366 28.5421 27.9278 24.2687 27.9278C22.4648 27.9278 20.8109 27.2861 19.4999 26.2242C21.3038 24.7629 22.4422 22.5077 22.4422 19.9639C22.4422 17.4201 21.2813 15.1624 19.4999 13.7036C20.8084 12.6418 22.4623 12 24.2662 12C28.5421 12 31.9999 15.5851 31.9999 19.9639Z" fill="#F79E1B"/>
</svg>
