<svg width="40" height="40" viewBox="0 0 40 40" fill="none" xmlns="http://www.w3.org/2000/svg">
<path d="M0 20C0 8.95431 8.95431 0 20 0C31.0457 0 40 8.95431 40 20C40 31.0457 31.0457 40 20 40C8.95431 40 0 31.0457 0 20Z" fill="#1434CB"/>
<path d="M24.232 15.0134C22.2459 15.0134 20.471 16.1458 20.471 18.2379C20.471 20.6372 23.6188 20.8029 23.6188 22.0082C23.6188 22.5157 23.0901 22.97 22.187 22.97C20.9053 22.97 19.9474 22.3352 19.9474 22.3352L19.5376 24.4464C19.5376 24.4464 20.641 24.9826 22.1061 24.9826C24.2776 24.9826 25.9862 23.7947 25.9862 21.6668C25.9862 19.1315 22.8253 18.9707 22.8253 17.852C22.8253 17.4544 23.2593 17.0188 24.1598 17.0188C25.1759 17.0188 26.0048 17.4805 26.0048 17.4805L26.406 15.4414C26.406 15.4414 25.504 15.0134 24.232 15.0134ZM6.06089 15.1673L6.0128 15.4751C6.0128 15.4751 6.84837 15.6433 7.60093 15.9788C8.56991 16.3636 8.63894 16.5876 8.80213 17.2833L10.5804 24.8239H12.9643L16.6367 15.1673H14.2584L11.8986 21.7329L10.9357 16.1676C10.8474 15.5307 10.4 15.1673 9.8525 15.1673H6.06089ZM17.5931 15.1673L15.7274 24.8239H17.9953L19.8545 15.1673H17.5931ZM30.2424 15.1673C29.6955 15.1673 29.4057 15.4894 29.1931 16.0522L25.8704 24.8239H28.2487L28.7089 23.362H31.6064L31.8862 24.8239H33.9848L32.154 15.1673H30.2424ZM30.5517 17.7762L31.2567 21.3999H29.368L30.5517 17.7762Z" fill="white"/>
</svg>
