<svg width="44" height="44" viewBox="0 0 44 44" fill="none" xmlns="http://www.w3.org/2000/svg">
<path d="M0 22C0 9.84974 9.84974 0 22 0C34.1503 0 44 9.84974 44 22C44 34.1503 34.1503 44 22 44C9.84974 44 0 34.1503 0 22Z" fill="url(#paint0_linear_46_1721)"/>
<path d="M16.432 18.9272C16.519 18.8504 16.5626 18.812 16.5694 18.7745C16.5754 18.7418 16.5663 18.7082 16.5446 18.683C16.5197 18.6541 16.4637 18.6432 16.3516 18.6213C15.0447 18.367 13.6917 18.2178 12.5048 18.2054C12.4478 18.2048 12.4194 18.2045 12.3973 18.1938C12.3776 18.1844 12.3616 18.1696 12.3505 18.1509C12.3379 18.1298 12.3352 18.1017 12.3297 18.0456L11.8897 13.5204C11.8842 13.4643 11.8815 13.4362 11.8899 13.4129C11.8973 13.3924 11.9107 13.3745 11.9282 13.3616C11.9482 13.3469 11.9758 13.3416 12.0311 13.3309C18.6608 12.0482 25.2596 11.9824 31.9886 13.3334C32.0437 13.3444 32.0713 13.3499 32.0911 13.3647C32.1085 13.3777 32.1218 13.3956 32.1291 13.4161C32.1373 13.4394 32.1345 13.4674 32.1289 13.5233L31.6723 18.0462C31.6667 18.1022 31.6638 18.1301 31.6513 18.1512C31.6401 18.1698 31.6241 18.1845 31.6045 18.1939C31.5825 18.2045 31.5541 18.2048 31.4973 18.2054C30.3103 18.2177 28.9571 18.3669 27.6499 18.6213C27.5379 18.6432 27.4818 18.6541 27.4569 18.683C27.4353 18.7082 27.4261 18.7418 27.4321 18.7745C27.4389 18.812 27.4825 18.8504 27.5696 18.9272C30.719 21.7036 32.9464 25.3616 32.9964 30.5006C32.997 30.5623 32.9973 30.5932 32.9854 30.617C32.975 30.6377 32.9579 30.6549 32.9373 30.6656C32.9136 30.6777 32.8828 30.6777 32.8213 30.6777H28.2844C28.2227 30.6777 28.1919 30.6777 28.1686 30.6659C28.1478 30.6554 28.1313 30.6392 28.1206 30.6186C28.1085 30.5954 28.108 30.5638 28.1072 30.5006C28.0483 26.2112 25.8454 23.3516 22.0967 20.9037C22.0621 20.8811 22.0448 20.8698 22.026 20.8653C22.0095 20.8615 21.992 20.8615 21.9755 20.8653C21.9568 20.8698 21.9394 20.8811 21.9048 20.9037C18.1561 23.3516 15.9532 26.2112 15.8944 30.5006C15.8935 30.5638 15.8931 30.5954 15.8809 30.6186C15.8702 30.6392 15.8537 30.6554 15.833 30.6659C15.8096 30.6777 15.7788 30.6777 15.7171 30.6777H11.1803C11.1187 30.6777 11.0879 30.6777 11.0642 30.6656C11.0436 30.6549 11.0265 30.6377 11.0161 30.617C11.0042 30.5932 11.0045 30.5623 11.0051 30.5006C11.0551 25.3616 13.2826 21.7036 16.432 18.9272Z" fill="white"/>
<defs>
<linearGradient id="paint0_linear_46_1721" x1="22" y1="0" x2="22" y2="44" gradientUnits="userSpaceOnUse">
<stop stop-color="#EF3F51"/>
<stop offset="1" stop-color="#FC6743"/>
</linearGradient>
</defs>
</svg>
