<svg width="42" height="42" fill="none" xmlns="http://www.w3.org/2000/svg"><path d="M1 21C1 9.954 9.954 1 21 1s20 8.954 20 20-8.954 20-20 20S1 32.046 1 21z" fill="#F53"/><path d="M15.938 18.206c.08-.07.12-.104.125-.138a.1.1 0 00-.022-.084c-.023-.026-.074-.036-.176-.056a19.948 19.948 0 00-3.497-.378c-.052 0-.077 0-.098-.01a.1.1 0 01-.042-.04c-.011-.018-.014-.044-.019-.095l-.4-4.114a.257.257 0 010-.098.1.1 0 01.035-.046c.018-.014.043-.018.094-.028 6.027-1.166 12.026-1.226 18.143.002.05.01.075.015.093.029a.1.1 0 01.035.046.256.256 0 010 .098l-.416 4.112c-.005.05-.007.076-.019.095a.098.098 0 01-.042.039c-.02.01-.046.01-.098.01-1.079.011-2.31.147-3.497.378-.102.02-.153.03-.176.056a.1.1 0 00-.022.084c.006.034.045.069.125.138 2.863 2.524 4.888 5.85 4.933 10.522 0 .056 0 .084-.01.106a.1.1 0 01-.044.044c-.021.01-.05.01-.105.01h-4.125c-.056 0-.084 0-.105-.01a.098.098 0 01-.044-.043c-.01-.021-.01-.05-.012-.107-.053-3.9-2.056-6.5-5.464-8.725a.223.223 0 00-.064-.035.098.098 0 00-.046 0 .266.266 0 00-.064.035c-3.408 2.226-5.41 4.825-5.464 8.725a.283.283 0 01-.012.107.098.098 0 01-.044.043c-.021.01-.05.01-.105.01h-4.125c-.056 0-.084 0-.105-.01a.1.1 0 01-.044-.044c-.01-.022-.01-.05-.01-.106.045-4.672 2.07-7.998 4.933-10.522zM21 40C10.507 40 2 31.493 2 21H0c0 11.598 9.402 21 21 21v-2zm19-19c0 10.493-8.507 19-19 19v2c11.598 0 21-9.402 21-21h-2zM21 2c10.493 0 19 8.507 19 19h2C42 9.402 32.598 0 21 0v2zm0-2C9.402 0 0 9.402 0 21h2C2 10.507 10.507 2 21 2V0z" fill="#fff"/></svg>